<svg width="218" height="60" viewBox="0 0 218 60" fill="none" xmlns="http://www.w3.org/2000/svg"><path fill-rule="evenodd" clip-rule="evenodd" d="M51.145 21.214L29.96 0 0 30l7.062 7.071 10.486-10.5L29.96 39l14.124-14.143-1.926-1.928 8.987-1.715zm-16.584 4.607a6.5 6.5 0 01-9.202 0 6.522 6.522 0 010-9.214 6.5 6.5 0 019.202 0 6.522 6.522 0 010 9.214z" fill="url(#paint0_linear)"/><path d="M10.486 40.5l7.062-7.071L29.96 45.857l17.547-17.571 1.926 1.928 1.712-9L59.92 30 29.96 60 10.487 40.5zM80.29 14.235h-7.395v12.95h3.151v-4.928h4.245a4.03 4.03 0 004.022-4.02c0-2.205-1.817-4.002-4.022-4.002zm0 4.873h-4.244v-1.723h4.245c.463 0 .852.389.852.852 0 .482-.389.87-.852.87zM94.215 27.184h3.41L92.62 14.236h-3.337L84.3 27.185h3.41l.611-1.594h5.283l.612 1.593zm-4.69-4.742l1.427-3.742 1.446 3.742h-2.873zM111.409 18.237c0-2.205-1.817-4.002-4.022-4.002h-7.396v12.95h3.151v-4.928h3.17l1.927 4.927h3.466l-2.224-5.52a4.032 4.032 0 001.928-3.427zm-4.022.87h-4.245v-1.722h4.245a.862.862 0 010 1.723zM125.234 14.235v3.15h-4.077v9.8h-3.151v-9.8h-4.078v-3.15h11.306zM136.717 21.886l-5.06-7.67h-3.466v12.931h3.151v-7.669l5.079 7.706h3.447V14.272h-3.151v7.614zM143.214 27.147h10.139v-3.149h-6.988v-1.723h5.468v-3.149h-5.468v-1.723h6.988v-3.168h-10.139v12.912zM167.736 18.237c0-2.205-1.816-4.002-4.022-4.002h-7.395v12.95h3.151v-4.928h3.169l1.928 4.927h3.466l-2.225-5.52a4.03 4.03 0 001.928-3.427zm-4.022.87h-4.244v-1.722h4.244c.463 0 .853.389.853.852 0 .482-.39.87-.853.87zM175.538 16.773c1.279-.315 2.706.149 3.577 1.13.482-.463.983-.926 1.446-1.389l1.056-1.019a7.945 7.945 0 00-3.428-1.574c-1.205-.241-2.466-.223-3.652.11-.964.26-1.89.705-2.539 1.446a3.684 3.684 0 00-.982 2.426c0 .89.315 1.779.926 2.427.575.649 1.372 1.038 2.187 1.316.816.277 1.669.444 2.484.722.519.167 1.057.389 1.316.963a.855.855 0 01.056.167c.129.87-.76 1.204-1.502 1.223-1.353.037-2.724-.52-3.688-1.482l-2.539 2.352c1.334 1.26 3.151 1.927 4.986 2.057 1.112.074 2.279-.037 3.317-.482 1.038-.445 1.965-1.223 2.465-2.223.519-1.019.556-2.26.037-3.26-.278-.556-.722-1-1.223-1.353a6.662 6.662 0 00-1.13-.611c-.964-.408-2.002-.63-2.985-.945-.426-.148-.852-.296-1.093-.722l-.056-.13c-.185-.649.427-1.019.964-1.149zM192.492 19.59h-4.949v-5.317h-3.151v12.912h3.151v-4.447h4.949v4.447h3.15V14.272h-3.15v5.316zM199.537 27.147h3.15V14.235h-3.15v12.912zM213.978 14.235h-7.395v12.95h3.15v-4.928h4.245a4.03 4.03 0 004.022-4.02c0-2.205-1.817-4.002-4.022-4.002zm0 4.873h-4.245v-1.723h4.245a.862.862 0 010 1.723zM85.132 32.002h1.124V41.1h4.875v1.014h-6.007l.008-10.113zM102.825 42.115V32.002h6.209v.979h-5.12v3.539h4.652v.979h-4.652v3.609l5.273.007v1h-6.362zM120.2 42.115l3.674-10.113h1.271l3.66 10.113h-1.125l-1.034-2.882h-4.267l-1.061 2.882H120.2zm2.472-3.917h3.66l-1.816-5.105-1.844 5.105zM140.462 32.002l.405.007h.845c.326 0 .631.002.915.007 1.858.019 3.197.447 4.016 1.287.824.834 1.236 2.063 1.236 3.685 0 1.707-.44 2.989-1.32 3.847-.88.853-2.242 1.28-4.085 1.28h-2.012V32.002zm1.132.965v8.183h.873c.903 0 1.671-.133 2.304-.4a2.938 2.938 0 001.46-1.307c.335-.606.503-1.413.503-2.42 0-1.026-.165-1.832-.496-2.42a2.758 2.758 0 00-1.439-1.258c-.628-.252-1.385-.378-2.27-.378h-.935zM159.69 42.115V32.002h6.209v.979h-5.119v3.539h4.651v.979h-4.651v3.609l5.273.007v1h-6.363zM185.208 42.115h-1.166l-1.9-4.483h-2.898v4.483h-1.09V32.002h3.813c1.062 0 1.868.235 2.417.706.549.471.824 1.133.824 1.986 0 .55-.102 1.01-.307 1.378-.2.364-.454.655-.761.874a3.666 3.666 0 01-.95.483l2.018 4.686zm-3.674-5.42c.815 0 1.444-.157 1.886-.469.443-.312.664-.797.664-1.455 0-.624-.194-1.088-.58-1.391-.386-.303-.927-.455-1.62-.455h-2.64v3.77h2.29zM200.195 42.255a5.028 5.028 0 01-1.781-.315 3.593 3.593 0 01-1.397-.93c-.377-.41-.612-.919-.705-1.525h1.152c.135.606.457 1.065.964 1.378.512.307 1.099.461 1.76.461.503 0 .95-.072 1.341-.216.391-.145.699-.35.922-.616.228-.266.342-.576.342-.93 0-.48-.151-.867-.454-1.161-.298-.298-.735-.518-1.313-.657l-2.039-.49c-.74-.168-1.32-.454-1.739-.86-.415-.41-.624-.949-.629-1.616 0-.569.149-1.07.447-1.503.298-.439.713-.781 1.243-1.028.531-.247 1.141-.371 1.83-.371.792 0 1.455.137 1.991.413.535.275.938.634 1.208 1.077.275.443.414.911.419 1.405h-1.138c-.047-.485-.189-.867-.426-1.147a1.96 1.96 0 00-.901-.608 3.458 3.458 0 00-1.153-.189c-.382 0-.754.07-1.117.21-.363.135-.664.34-.901.615-.233.275-.349.62-.349 1.035 0 .383.13.695.391.938.261.237.735.445 1.425.622l1.976.483c.629.144 1.113.368 1.453.67.34.304.573.644.698 1.022.131.373.196.746.196 1.119 0 .499-.145.954-.433 1.364-.289.41-.71.739-1.264.986-.554.242-1.227.364-2.019.364z" fill="#292D30"/><defs><linearGradient id="paint0_linear" x1="25.573" y1="0" x2="25.573" y2="39" gradientUnits="userSpaceOnUse"><stop stop-color="#231D89"/><stop offset=".245" stop-color="#A22C82"/><stop offset=".469" stop-color="#E92C79"/><stop offset="1" stop-color="#F9A447"/></linearGradient></defs></svg>